<svg version="1.1" xmlns="http://www.w3.org/2000/svg" xmlns:xlink="http://www.w3.org/1999/xlink" width="835" height="828"><defs/><g><g transform="translate(-182,-62) scale(1,1)"><rect fill="#C0C0C0" stroke="none" x="415" y="79" width="599" height="808" opacity="0.2"/></g><g transform="translate(-182,-62) scale(1,1)"><rect fill="#ffffff" stroke="none" x="408" y="72" width="599" height="808"/></g><g transform="translate(-182,-62) scale(1,1)"><path fill="none" stroke="#000000" d="M 408 72 L 1007 72 L 1007 880 L 408 880 L 408 72 Z Z" stroke-miterlimit="10"/></g><g transform="translate(-182,-62) scale(1,1)"><g><path fill="none" stroke="none"/><text fill="#000000" stroke="none" font-family="Arial" font-size="13px" font-style="normal" font-weight="bold" text-decoration="none" x="670.293212890625" y="91.5">LOCUS APP</text></g></g><g transform="translate(-182,-62) scale(1,1)"><path fill="#ffffff" stroke="none" d="M 250.47478000710228 137.68 C 250.47478000710228 132.886167936 254.3606223320477 129 259.154052734375 129 C 263.94748313670226 129 267.83332546164775 132.886167936 267.83332546164775 137.68 C 267.83332546164775 142.47383206400002 263.94748313670226 146.36 259.154052734375 146.36 C 254.3606223320477 146.36 250.47478000710228 142.47383206400002 250.47478000710228 137.68 Z"/></g><g transform="translate(-182,-62) scale(1,1)"><path fill="none" stroke="#000000" d="M 250.47478000710228 137.68 C 250.47478000710228 132.886167936 254.3606223320477 129 259.154052734375 129 C 263.94748313670226 129 267.83332546164775 132.886167936 267.83332546164775 137.68 C 267.83332546164775 142.47383206400002 263.94748313670226 146.36 259.154052734375 146.36 C 254.3606223320477 146.36 250.47478000710228 142.47383206400002 250.47478000710228 137.68 Z" stroke-miterlimit="10"/></g><g transform="translate(-182,-62) scale(1,1)"><path fill="none" stroke="#000000" d="M 259.154052734375 146.36 L 259.154052734375 163.64" stroke-miterlimit="10"/></g><g transform="translate(-182,-62) scale(1,1)"><path fill="none" stroke="#000000" d="M 249.96423455255683 152.84 L 268.34387091619317 152.84" stroke-miterlimit="10"/></g><g transform="translate(-182,-62) scale(1,1)"><path fill="none" stroke="#000000" d="M 259.154052734375 163.64 L 246.39041637073865 181" stroke-miterlimit="10"/></g><g transform="translate(-182,-62) scale(1,1)"><path fill="none" stroke="#000000" d="M 259.154052734375 163.64 L 271.91768909801135 181" stroke-miterlimit="10"/></g><g transform="translate(-182,-62) scale(1,1)"><g><path fill="none" stroke="none"/><text fill="#000000" stroke="none" font-family="Arial" font-size="13px" font-style="normal" font-weight="bold" text-decoration="none" x="225.9208984375" y="201.5">Consumers</text></g></g><g transform="translate(-182,-62) scale(1,1)"><path fill="#ffffff" stroke="none" d="M 250.36931125710228 369.68 C 250.36931125710228 364.886167936 254.2551535820477 361 259.048583984375 361 C 263.84201438670226 361 267.72785671164775 364.886167936 267.72785671164775 369.68 C 267.72785671164775 374.473832064 263.84201438670226 378.36 259.048583984375 378.36 C 254.2551535820477 378.36 250.36931125710228 374.473832064 250.36931125710228 369.68 Z"/></g><g transform="translate(-182,-62) scale(1,1)"><path fill="none" stroke="#000000" d="M 250.36931125710228 369.68 C 250.36931125710228 364.886167936 254.2551535820477 361 259.048583984375 361 C 263.84201438670226 361 267.72785671164775 364.886167936 267.72785671164775 369.68 C 267.72785671164775 374.473832064 263.84201438670226 378.36 259.048583984375 378.36 C 254.2551535820477 378.36 250.36931125710228 374.473832064 250.36931125710228 369.68 Z" stroke-miterlimit="10"/></g><g transform="translate(-182,-62) scale(1,1)"><path fill="none" stroke="#000000" d="M 259.048583984375 378.36 L 259.048583984375 395.64" stroke-miterlimit="10"/></g><g transform="translate(-182,-62) scale(1,1)"><path fill="none" stroke="#000000" d="M 249.85876580255683 384.84 L 268.23840216619317 384.84" stroke-miterlimit="10"/></g><g transform="translate(-182,-62) scale(1,1)"><path fill="none" stroke="#000000" d="M 259.048583984375 395.64 L 246.28494762073865 413" stroke-miterlimit="10"/></g><g transform="translate(-182,-62) scale(1,1)"><path fill="none" stroke="#000000" d="M 259.048583984375 395.64 L 271.81222034801135 413" stroke-miterlimit="10"/></g><g transform="translate(-182,-62) scale(1,1)"><g><path fill="none" stroke="none"/><text fill="#000000" stroke="none" font-family="Arial" font-size="13px" font-style="normal" font-weight="bold" text-decoration="none" x="208.4736328125" y="433.5">Business Owners</text></g></g><g transform="translate(-182,-62) scale(1,1)"><path fill="#ffffff" stroke="none" d="M 234.05070774147728 657.6800000000001 C 234.05070774147728 652.8861679360001 237.93655006642274 649 242.72998046875 649 C 247.52341087107726 649 251.40925319602272 652.8861679360001 251.40925319602272 657.6800000000001 C 251.40925319602272 662.473832064 247.52341087107726 666.36 242.72998046875 666.36 C 237.93655006642274 666.36 234.05070774147728 662.473832064 234.05070774147728 657.6800000000001 Z"/></g><g transform="translate(-182,-62) scale(1,1)"><path fill="none" stroke="#000000" d="M 234.05070774147728 657.6800000000001 C 234.05070774147728 652.8861679360001 237.93655006642274 649 242.72998046875 649 C 247.52341087107726 649 251.40925319602272 652.8861679360001 251.40925319602272 657.6800000000001 C 251.40925319602272 662.473832064 247.52341087107726 666.36 242.72998046875 666.36 C 237.93655006642274 666.36 234.05070774147728 662.473832064 234.05070774147728 657.6800000000001 Z" stroke-miterlimit="10"/></g><g transform="translate(-182,-62) scale(1,1)"><path fill="none" stroke="#000000" d="M 242.72998046875 666.36 L 242.72998046875 683.64" stroke-miterlimit="10"/></g><g transform="translate(-182,-62) scale(1,1)"><path fill="none" stroke="#000000" d="M 233.54016228693183 672.84 L 251.91979865056817 672.84" stroke-miterlimit="10"/></g><g transform="translate(-182,-62) scale(1,1)"><path fill="none" stroke="#000000" d="M 242.72998046875 683.64 L 229.96634410511365 701" stroke-miterlimit="10"/></g><g transform="translate(-182,-62) scale(1,1)"><path fill="none" stroke="#000000" d="M 242.72998046875 683.64 L 255.49361683238635 701" stroke-miterlimit="10"/></g><g transform="translate(-182,-62) scale(1,1)"><g><path fill="none" stroke="none"/><text fill="#000000" stroke="none" font-family="Arial" font-size="13px" font-style="normal" font-weight="bold" text-decoration="none" x="201.19091796875" y="721.5">Administrators</text></g></g><g transform="translate(-182,-62) scale(1,1)"><path fill="#C0C0C0" stroke="none" d="M 575 155 C 575 130.6994688 635.8892672 111 711 111 C 786.1107328 111 847 130.6994688 847 155 C 847 179.3005312 786.1107328 199 711 199 C 635.8892672 199 575 179.3005312 575 155 Z" opacity="0.2"/></g><g transform="translate(-182,-62) scale(1,1)"><path fill="#ffffff" stroke="none" d="M 568 148 C 568 123.6994688 628.8892672 104 704 104 C 779.1107328 104 840 123.6994688 840 148 C 840 172.3005312 779.1107328 192 704 192 C 628.8892672 192 568 172.3005312 568 148 Z"/></g><g transform="translate(-182,-62) scale(1,1)"><path fill="none" stroke="#000000" d="M 568 148 C 568 123.6994688 628.8892672 104 704 104 C 779.1107328 104 840 123.6994688 840 148 C 840 172.3005312 779.1107328 192 704 192 C 628.8892672 192 568 172.3005312 568 148 Z" stroke-miterlimit="10"/></g><g transform="translate(-182,-62) scale(1,1)"><g><path fill="none" stroke="none"/><text fill="#000000" stroke="none" font-family="Arial" font-size="13px" font-style="normal" font-weight="bold" text-decoration="none" x="647.635986328125" y="155">View nearby places</text></g></g><g transform="translate(-182,-62) scale(1,1)"><path fill="#C0C0C0" stroke="none" d="M 567 251 C 567 226.6994688 627.8892672 207 703 207 C 778.1107328 207 839 226.6994688 839 251 C 839 275.3005312 778.1107328 295 703 295 C 627.8892672 295 567 275.3005312 567 251 Z" opacity="0.2"/></g><g transform="translate(-182,-62) scale(1,1)"><path fill="#ffffff" stroke="none" d="M 560 244 C 560 219.6994688 620.8892672 200 696 200 C 771.1107328 200 832 219.6994688 832 244 C 832 268.3005312 771.1107328 288 696 288 C 620.8892672 288 560 268.3005312 560 244 Z"/></g><g transform="translate(-182,-62) scale(1,1)"><path fill="none" stroke="#000000" d="M 560 244 C 560 219.6994688 620.8892672 200 696 200 C 771.1107328 200 832 219.6994688 832 244 C 832 268.3005312 771.1107328 288 696 288 C 620.8892672 288 560 268.3005312 560 244 Z" stroke-miterlimit="10"/></g><g transform="translate(-182,-62) scale(1,1)"><g><path fill="none" stroke="none"/><text fill="#000000" stroke="none" font-family="Arial" font-size="13px" font-style="normal" font-weight="bold" text-decoration="none" x="660.595947265625" y="251">Add reviews</text></g></g><g transform="translate(-182,-62) scale(1,1)"><path fill="none" stroke="#000000" d="M 303 165 L 567 154" stroke-miterlimit="10"/></g><g transform="translate(-182,-62) scale(1,1)"><path fill="none" stroke="#000000" d="M 557.0213799558221 158.62894610186075 L 567 154 L 556.670890921505 150.2172092782506" stroke-miterlimit="10"/></g><g transform="translate(-182,-62) scale(1,1)"><path fill="none" stroke="#000000" d="M 303 175 L 559 220" stroke-miterlimit="10"/></g><g transform="translate(-182,-62) scale(1,1)"><path fill="none" stroke="#000000" d="M 548.2620056602397 222.3865199683377 L 559 220 L 549.719566932964 214.0946158390614" stroke-miterlimit="10"/></g><g transform="translate(-182,-62) scale(1,1)"><path fill="#C0C0C0" stroke="none" d="M 583 362.5 C 583 334.0573328 643.6654096 311 718.5 311 C 793.3345904 311 854 334.0573328 854 362.5 C 854 390.9426672 793.3345904 414 718.5 414 C 643.6654096 414 583 390.9426672 583 362.5 Z" opacity="0.2"/></g><g transform="translate(-182,-62) scale(1,1)"><path fill="#ffffff" stroke="none" d="M 576 355.5 C 576 327.0573328 636.6654096 304 711.5 304 C 786.3345904 304 847 327.0573328 847 355.5 C 847 383.9426672 786.3345904 407 711.5 407 C 636.6654096 407 576 383.9426672 576 355.5 Z"/></g><g transform="translate(-182,-62) scale(1,1)"><path fill="none" stroke="#000000" d="M 576 355.5 C 576 327.0573328 636.6654096 304 711.5 304 C 786.3345904 304 847 327.0573328 847 355.5 C 847 383.9426672 786.3345904 407 711.5 407 C 636.6654096 407 576 383.9426672 576 355.5 Z" stroke-miterlimit="10"/></g><g transform="translate(-182,-62) scale(1,1)"><g><path fill="none" stroke="none"/><text fill="#000000" stroke="none" font-family="Arial" font-size="13px" font-style="normal" font-weight="bold" text-decoration="none" x="678.61279296875" y="362.5">Add photos</text></g></g><g transform="translate(-182,-62) scale(1,1)"><path fill="none" stroke="#000000" d="M 319 393 L 575 368" stroke-miterlimit="10"/></g><g transform="translate(-182,-62) scale(1,1)"><path fill="none" stroke="#000000" d="M 565.2945800943734 373.17733758368774 L 575 368 L 564.4763012565509 364.7981622843861" stroke-miterlimit="10"/></g><g transform="translate(-182,-62) scale(1,1)"><path fill="none" stroke="#000000" d="M 303 185 L 586 303" stroke-miterlimit="10"/></g><g transform="translate(-182,-62) scale(1,1)"><path fill="none" stroke="#000000" d="M 575.0000301908926 302.9742279468189 L 586 303 L 578.2400703487023 295.2036231615634" stroke-miterlimit="10"/></g><g transform="translate(-182,-62) scale(1,1)"><path fill="#C0C0C0" stroke="none" d="M 583 822.5 C 583 796.266472 649.4857072 775 731.5 775 C 813.5142928 775 880 796.266472 880 822.5 C 880 848.733528 813.5142928 870 731.5 870 C 649.4857072 870 583 848.733528 583 822.5 Z" opacity="0.2"/></g><g transform="translate(-182,-62) scale(1,1)"><path fill="#ffffff" stroke="none" d="M 576 815.5 C 576 789.266472 642.4857072 768 724.5 768 C 806.5142928 768 873 789.266472 873 815.5 C 873 841.733528 806.5142928 863 724.5 863 C 642.4857072 863 576 841.733528 576 815.5 Z"/></g><g transform="translate(-182,-62) scale(1,1)"><path fill="none" stroke="#000000" d="M 576 815.5 C 576 789.266472 642.4857072 768 724.5 768 C 806.5142928 768 873 789.266472 873 815.5 C 873 841.733528 806.5142928 863 724.5 863 C 642.4857072 863 576 841.733528 576 815.5 Z" stroke-miterlimit="10"/></g><g transform="translate(-182,-62) scale(1,1)"><g><path fill="none" stroke="none"/><text fill="#000000" stroke="none" font-family="Arial" font-size="13px" font-style="normal" font-weight="bold" text-decoration="none" x="632.735107421875" y="822.5">Add or remove business listings</text></g></g><g transform="translate(-182,-62) scale(1,1)"><path fill="#C0C0C0" stroke="none" d="M 575 598.5 C 575 567.8481936 636.7846976 543 713 543 C 789.2153024 543 851 567.8481936 851 598.5 C 851 629.1518064 789.2153024 654 713 654 C 636.7846976 654 575 629.1518064 575 598.5 Z" opacity="0.2"/></g><g transform="translate(-182,-62) scale(1,1)"><path fill="#ffffff" stroke="none" d="M 568 591.5 C 568 560.8481936 629.7846976 536 706 536 C 782.2153024 536 844 560.8481936 844 591.5 C 844 622.1518064 782.2153024 647 706 647 C 629.7846976 647 568 622.1518064 568 591.5 Z"/></g><g transform="translate(-182,-62) scale(1,1)"><path fill="none" stroke="#000000" d="M 568 591.5 C 568 560.8481936 629.7846976 536 706 536 C 782.2153024 536 844 560.8481936 844 591.5 C 844 622.1518064 782.2153024 647 706 647 C 629.7846976 647 568 622.1518064 568 591.5 Z" stroke-miterlimit="10"/></g><g transform="translate(-182,-62) scale(1,1)"><g><path fill="none" stroke="none"/><text fill="#000000" stroke="none" font-family="Arial" font-size="13px" font-style="normal" font-weight="bold" text-decoration="none" x="620.001953125" y="598.5">Edit information about a place</text></g></g><g transform="translate(-182,-62) scale(1,1)"><path fill="none" stroke="#000000" d="M 319 425 L 576 535" stroke-miterlimit="10"/></g><g transform="translate(-182,-62) scale(1,1)"><path fill="none" stroke="#000000" d="M 565.000755849422 534.871049947742 L 576 535 L 568.3135413295859 527.1311784168139" stroke-miterlimit="10"/></g><g transform="translate(-182,-62) scale(1,1)"><g><path fill="none" stroke="none"/><text fill="#000000" stroke="none" font-family="Arial" font-size="13px" font-style="normal" font-weight="normal" text-decoration="none" x="374" y="473">+limited to respective place</text></g></g><g transform="translate(-182,-62) scale(1,1)"><path fill="none" stroke="#000000" d="M 294 701 L 575 775" stroke-miterlimit="10"/></g><g transform="translate(-182,-62) scale(1,1)"><path fill="none" stroke="#000000" d="M 564.1003819769408 776.4826756055866 L 575 775 L 566.2443962085415 768.3412161585618" stroke-miterlimit="10"/></g><g transform="translate(-182,-62) scale(1,1)"><path fill="#C0C0C0" stroke="none" d="M 567 487 C 567 460.4903296 625.8745488 439 698.5 439 C 771.1254512 439 830 460.4903296 830 487 C 830 513.5096704 771.1254512 535 698.5 535 C 625.8745488 535 567 513.5096704 567 487 Z" opacity="0.2"/></g><g transform="translate(-182,-62) scale(1,1)"><path fill="#ffffff" stroke="none" d="M 560 480 C 560 453.4903296 618.8745488 432 691.5 432 C 764.1254512 432 823 453.4903296 823 480 C 823 506.5096704 764.1254512 528 691.5 528 C 618.8745488 528 560 506.5096704 560 480 Z"/></g><g transform="translate(-182,-62) scale(1,1)"><path fill="none" stroke="#000000" d="M 560 480 C 560 453.4903296 618.8745488 432 691.5 432 C 764.1254512 432 823 453.4903296 823 480 C 823 506.5096704 764.1254512 528 691.5 528 C 618.8745488 528 560 506.5096704 560 480 Z" stroke-miterlimit="10"/></g><g transform="translate(-182,-62) scale(1,1)"><g><path fill="none" stroke="none"/><text fill="#000000" stroke="none" font-family="Arial" font-size="13px" font-style="normal" font-weight="bold" text-decoration="none" x="639.115966796875" y="487">Register Business</text></g></g><g transform="translate(-182,-62) scale(1,1)"><path fill="#C0C0C0" stroke="none" d="M 583 722.5 C 583 698.4756112 640.0836879999999 679 710.5 679 C 780.9163120000001 679 838 698.4756112 838 722.5 C 838 746.5243888 780.9163120000001 766 710.5 766 C 640.0836879999999 766 583 746.5243888 583 722.5 Z" opacity="0.2"/></g><g transform="translate(-182,-62) scale(1,1)"><path fill="#ffffff" stroke="none" d="M 576 715.5 C 576 691.4756112 633.0836879999999 672 703.5 672 C 773.9163120000001 672 831 691.4756112 831 715.5 C 831 739.5243888 773.9163120000001 759 703.5 759 C 633.0836879999999 759 576 739.5243888 576 715.5 Z"/></g><g transform="translate(-182,-62) scale(1,1)"><path fill="none" stroke="#000000" d="M 576 715.5 C 576 691.4756112 633.0836879999999 672 703.5 672 C 773.9163120000001 672 831 691.4756112 831 715.5 C 831 739.5243888 773.9163120000001 759 703.5 759 C 633.0836879999999 759 576 739.5243888 576 715.5 Z" stroke-miterlimit="10"/></g><g transform="translate(-182,-62) scale(1,1)"><g><path fill="none" stroke="none"/><text fill="#000000" stroke="none" font-family="Arial" font-size="13px" font-style="normal" font-weight="bold" text-decoration="none" x="642.080078125" y="722.5">Approve registrations</text></g></g><g transform="translate(-182,-62) scale(1,1)"><path fill="none" stroke="#000000" d="M 294 690 L 575 707" stroke-miterlimit="10"/></g><g transform="translate(-182,-62) scale(1,1)"><path fill="none" stroke="#000000" d="M 564.6016685553153 710.588133660621 L 575 707 L 565.1100756792093 702.184462965667" stroke-miterlimit="10"/></g><g transform="translate(-182,-62) scale(1,1)"><path fill="none" stroke="#000000" d="M 319 410 L 559 455" stroke-miterlimit="10"/></g><g transform="translate(-182,-62) scale(1,1)"><path fill="none" stroke="#000000" d="M 548.2356236770605 457.2645534610914 L 559 455 L 549.7871553981084 448.9897176155028" stroke-miterlimit="10"/></g><g transform="translate(-182,-62) scale(1,1)"><path fill="none" stroke="#000000" d="M 294 676 L 567 620" stroke-miterlimit="10"/></g><g transform="translate(-182,-62) scale(1,1)"><path fill="none" stroke="#000000" d="M 557.8904942046923 626.1657849593752 L 567 620 L 556.1987383227677 617.9184750349921" stroke-miterlimit="10"/></g></g></svg>